<svg width="47" height="47" viewBox="0 0 47 47" fill="none" xmlns="http://www.w3.org/2000/svg">
<path d="M32.4651 9.35999H36.0415L32.3418 12.3428C32.3726 12.3735 32.3726 12.4043 32.4034 12.435C32.8042 13.0193 33.2975 13.542 33.8833 13.9725C33.8833 13.9725 33.8833 13.9725 33.9141 13.9725L37.0281 10.1287H37.0589C37.0897 10.1287 37.0897 10.1595 37.1206 10.1595V13.7265C37.1206 13.9725 37.3364 14.1878 37.583 14.1878C37.8297 14.1878 38.0455 13.9725 38.0455 13.7265V10.1595C38.2305 10.098 38.4155 10.0057 38.5696 9.852C38.7238 9.69825 38.8163 9.54449 38.9088 9.32924H42.6702C42.9168 9.32924 43.1326 9.11399 43.1326 8.86799C43.1326 8.62199 42.9168 8.40673 42.6702 8.40673H38.9088C38.8471 8.22223 38.7238 8.03773 38.5696 7.88398C38.4155 7.73023 38.2305 7.63798 38.0455 7.57648V3.60969C38.0455 3.36369 37.8297 3.14844 37.583 3.14844C37.3364 3.14844 37.1206 3.36369 37.1206 3.60969V7.57648C36.9356 7.63798 36.7506 7.73023 36.5964 7.88398C36.4423 8.03773 36.3498 8.19148 36.2573 8.40673H32.4959C32.2493 8.40673 32.0334 8.62199 32.0334 8.86799C32.0334 9.11399 32.2184 9.35999 32.4651 9.35999Z" fill="#333333"/>
<path d="M7.4304 9.35999C7.49207 9.5445 7.61539 9.729 7.76955 9.88275C7.9237 10.0365 8.10869 10.1288 8.29368 10.1903V13.7573C8.29368 14.0033 8.50949 14.2185 8.75614 14.2185C9.00279 14.2185 9.21861 14.0033 9.21861 13.7573V10.1595C9.24944 10.1595 9.24944 10.1288 9.28027 10.1288L12.3942 13.9725C12.425 13.9725 12.425 13.9418 12.4559 13.9418C13.0417 13.5113 13.535 13.0193 13.9358 12.4043L13.9666 12.3735L10.2052 9.35999H10.236H13.8124C14.0591 9.35999 14.2749 9.14474 14.2749 8.89874C14.2749 8.65274 14.0591 8.43749 13.8124 8.43749H10.051C9.98939 8.25298 9.86606 8.06848 9.71191 7.91473C9.55775 7.76098 9.37276 7.66873 9.18778 7.60723V3.60969C9.18778 3.36369 8.97196 3.14844 8.72531 3.14844C8.47866 3.14844 8.26284 3.36369 8.26284 3.60969V7.57648C8.07786 7.63798 7.89287 7.73023 7.73872 7.88398C7.58456 8.03773 7.49207 8.19148 7.39957 8.40674H3.66901C3.42236 8.40674 3.20654 8.62199 3.20654 8.86799C3.20654 9.11399 3.42236 9.32925 3.66901 9.32925H7.4304V9.35999Z" fill="#333333"/>
<path d="M38.8471 36.8506C38.7854 36.6661 38.6621 36.4816 38.5079 36.3278C38.3538 36.1741 38.1688 36.0818 37.9838 36.0203V32.0535C37.9838 31.8075 37.768 31.5923 37.5213 31.5923C37.2747 31.5923 37.0589 31.8075 37.0589 32.0535V36.0203C37.028 36.0203 37.028 36.0511 36.9972 36.0511H36.9664L33.8524 32.2073C33.8524 32.2073 33.8524 32.2073 33.8216 32.2073C33.2358 32.6378 32.7425 33.1298 32.3417 33.7448C32.3109 33.7756 32.3109 33.8063 32.2801 33.8371L35.9798 36.8198H32.4034C32.1567 36.8198 31.9409 37.0351 31.9409 37.2811C31.9409 37.5271 32.1567 37.7423 32.4034 37.7423H36.1648C36.2264 37.9268 36.3498 38.1113 36.5039 38.2651C36.6581 38.4188 36.8431 38.5111 37.028 38.5726V42.1396C37.028 42.3856 37.2439 42.6009 37.4905 42.6009C37.7372 42.6009 37.953 42.3856 37.953 42.1396V38.5418C38.138 38.4803 38.3229 38.3881 38.4771 38.2343C38.6313 38.0806 38.7238 37.9268 38.8162 37.7116H42.5776C42.8243 37.7116 43.0401 37.4963 43.0401 37.2503C43.0401 37.0043 42.8243 36.7891 42.5776 36.7891H38.8471V36.8506Z" fill="#333333"/>
<path d="M13.8433 36.8506H10.2669H10.236L13.9666 33.8371L13.9358 33.8063C13.535 33.2221 13.0417 32.6993 12.4559 32.2688C12.425 32.2688 12.425 32.2381 12.3942 32.2381L9.28027 36.0818C9.24944 36.0818 9.24944 36.0511 9.2186 36.0511V32.0843C9.2186 31.8383 9.00279 31.623 8.75614 31.623C8.50949 31.623 8.29367 31.8383 8.29367 32.0843V36.0511C8.10869 36.1126 7.9237 36.2048 7.76954 36.3586C7.61539 36.5123 7.52289 36.6661 7.4304 36.8813H3.66901C3.42236 36.8813 3.20654 37.0966 3.20654 37.3426C3.20654 37.5886 3.42236 37.8039 3.66901 37.8039H7.4304C7.49206 37.9884 7.61539 38.1729 7.76954 38.3266C7.9237 38.4804 8.10869 38.5726 8.29367 38.6341V42.2011C8.29367 42.4472 8.50949 42.6624 8.75614 42.6624C9.00279 42.6624 9.2186 42.4472 9.2186 42.2011V38.6034C9.40359 38.5419 9.58858 38.4496 9.74273 38.2959C9.89689 38.1421 9.98938 37.9884 10.0819 37.7731H13.8433C14.0899 37.7731 14.3057 37.5579 14.3057 37.3119C14.3057 37.0658 14.0899 36.8506 13.8433 36.8506Z" fill="#333333"/>
<path d="M31.756 29.6236L29.5979 26.9795L28.9504 27.6252L27.6555 28.9165L27.0081 29.5622L29.6904 31.7451C30.2761 30.915 30.9544 30.2078 31.756 29.6236Z" fill="#333333"/>
<path d="M16.6488 26.9492L14.5215 29.5934C15.3231 30.1775 16.0014 30.8847 16.5872 31.7149L19.2386 29.5626L17.2963 27.6256L16.6488 26.9492Z" fill="#333333"/>
<path d="M14.5215 16.6166L16.6488 19.2608L17.2963 18.6151L19.2386 16.6781L16.5872 14.5259C16.0322 15.3253 15.3231 16.0324 14.5215 16.6166Z" fill="#333333"/>
<path d="M28.9504 18.5843L29.5979 19.23L31.756 16.5858C31.5094 16.4014 31.2936 16.2169 31.0778 16.0324C30.8311 15.8172 30.5845 15.5712 30.3686 15.3252C30.1528 15.0793 29.937 14.8026 29.7212 14.5258C29.7212 14.4951 29.6904 14.4951 29.6904 14.4644L27.0081 16.6473L27.6555 17.293L28.9504 18.5843Z" fill="#333333"/>
<path d="M29.7211 20.6758L25.5589 16.5245C24.8806 15.848 23.9865 15.5098 23.1233 15.5098C22.2292 15.5098 21.3659 15.848 20.6876 16.5245L16.5562 20.6758C15.1997 22.0288 15.1997 24.2121 16.5562 25.5344L20.6876 29.6856C22.0442 31.0387 24.2332 31.0387 25.5589 29.6856L29.7211 25.5344C31.0777 24.2121 31.0777 22.0288 29.7211 20.6758Z" fill="#333333"/>
<path d="M30.4921 14.0032C30.6771 14.2492 30.8621 14.4952 31.0779 14.7104C31.2937 14.9257 31.5095 15.1409 31.7253 15.3562C31.9412 15.5407 32.157 15.7252 32.3728 15.8789C32.4036 15.9097 32.4036 15.9097 32.4345 15.9404C33.8835 16.9859 35.6409 17.6009 37.5524 17.6009C42.3621 17.6009 46.2776 13.6956 46.2776 8.89861C46.2776 4.10156 42.3621 0.165527 37.5524 0.165527C32.7428 0.165527 28.7964 4.07081 28.7964 8.89861C28.7964 10.7744 29.3822 12.4964 30.3996 13.9417C30.4304 13.9417 30.4613 13.9724 30.4921 14.0032ZM37.5524 1.70304C41.5296 1.70304 44.7361 4.93182 44.7361 8.89861C44.7361 12.8654 41.4988 16.0634 37.5524 16.0634C35.98 16.0634 34.531 15.5407 33.3286 14.6797C32.6503 14.1877 32.0953 13.6034 31.6328 12.9269C30.8312 11.7584 30.3688 10.3746 30.3688 8.86786C30.3688 4.93182 33.5752 1.70304 37.5524 1.70304Z" fill="#333333"/>
<path d="M2.25067 14.7104C2.46649 14.9257 2.68231 15.1409 2.89812 15.3562C3.11394 15.5714 3.36059 15.7559 3.60724 15.9404C5.0563 16.9859 6.81367 17.6009 8.7252 17.6009C10.6676 17.6009 12.4866 16.9552 13.9357 15.8789C14.6756 15.3254 15.3231 14.6489 15.878 13.9109C16.8954 12.4964 17.4812 10.7744 17.4812 8.89861C17.4812 4.10156 13.5657 0.165527 8.75603 0.165527C3.94638 0.165527 0 4.07081 0 8.89861C0 10.8051 0.616622 12.5886 1.66488 14.0032C1.84987 14.2492 2.06568 14.4952 2.25067 14.7104ZM8.75603 1.70304C12.7332 1.70304 15.9397 4.93182 15.9397 8.89861C15.9397 10.4054 15.4772 11.7891 14.6756 12.9576C14.2131 13.6341 13.6273 14.2184 12.9799 14.7104C11.7775 15.5714 10.3284 16.0942 8.7252 16.0942C4.74799 16.0942 1.51072 12.8654 1.51072 8.92936C1.54155 4.93182 4.77882 1.70304 8.75603 1.70304Z" fill="#333333"/>
<path d="M37.5524 28.6094C35.61 28.6094 33.8218 29.2551 32.3727 30.3314C31.6328 30.8849 30.9853 31.5614 30.4304 32.2994C29.4129 33.7139 28.8271 35.4667 28.8271 37.3425C28.8271 39.249 29.4438 41.0325 30.492 42.447C30.677 42.693 30.862 42.939 31.0778 43.1543C31.2936 43.3695 31.5095 43.5848 31.7253 43.8C31.9411 44.0153 32.1877 44.1998 32.4344 44.3843C33.8835 45.4298 35.6408 46.0448 37.5524 46.0448C42.362 46.0448 46.2776 42.1395 46.2776 37.3425C46.2776 32.5454 42.362 28.6094 37.5524 28.6094ZM37.5524 44.5073C33.5751 44.5073 30.3379 41.2785 30.3379 37.3425C30.3379 35.8357 30.8003 34.4519 31.6019 33.2834C32.0644 32.6069 32.6502 32.0227 33.2977 31.5307C34.5001 30.6696 35.9491 30.1469 37.5215 30.1469C41.4987 30.1469 44.7052 33.3757 44.7052 37.3425C44.7668 41.2785 41.5296 44.5073 37.5524 44.5073Z" fill="#333333"/>
<path d="M13.9665 30.3314C12.5174 29.2551 10.6984 28.6094 8.75604 28.6094C3.94638 28.6094 0 32.5147 0 37.3425C0 39.249 0.616622 41.0325 1.66488 42.447C1.84987 42.693 2.03485 42.939 2.25067 43.1543C2.46649 43.3695 2.68231 43.5848 2.89812 43.8C3.11394 44.0153 3.36059 44.1998 3.60724 44.3843C5.0563 45.4298 6.81368 46.0448 8.72521 46.0448C13.5349 46.0448 17.4504 42.1395 17.4504 37.3425C17.4504 35.4667 16.8646 33.7447 15.8472 32.3302C15.3539 31.5614 14.7064 30.8849 13.9665 30.3314ZM8.75604 44.5073C4.77882 44.5073 1.54156 41.2785 1.54156 37.3425C1.54156 33.3757 4.77882 30.1469 8.75604 30.1469C10.3284 30.1469 11.8083 30.6696 13.0107 31.5307C13.6582 32.0227 14.244 32.6069 14.7064 33.2834C15.508 34.4212 15.9705 35.8357 15.9705 37.3425C15.9397 41.2785 12.7332 44.5073 8.75604 44.5073Z" fill="#333333"/>
</svg>
