<svg width="47" height="46" viewBox="0 0 47 46" fill="none" xmlns="http://www.w3.org/2000/svg">
<path d="M32.4651 9.19437H36.0415L32.3418 12.1771C32.3726 12.2079 32.3726 12.2387 32.4034 12.2694C32.8042 12.8537 33.2975 13.3764 33.8833 13.8069C33.8833 13.8069 33.8833 13.8069 33.9141 13.8069L37.0281 9.96313H37.0589C37.0897 9.96313 37.0897 9.99388 37.1206 9.99388V13.5609C37.1206 13.8069 37.3364 14.0222 37.583 14.0222C37.8297 14.0222 38.0455 13.8069 38.0455 13.5609V9.99388C38.2305 9.93238 38.4155 9.84013 38.5696 9.68638C38.7238 9.53263 38.8163 9.37888 38.9088 9.16362H42.6702C42.9168 9.16362 43.1326 8.94837 43.1326 8.70237C43.1326 8.45637 42.9168 8.24112 42.6702 8.24112H38.9088C38.8471 8.05661 38.7238 7.87211 38.5696 7.71836C38.4155 7.56461 38.2305 7.47236 38.0455 7.41086V3.44407C38.0455 3.19807 37.8297 2.98282 37.583 2.98282C37.3364 2.98282 37.1206 3.19807 37.1206 3.44407V7.41086C36.9356 7.47236 36.7506 7.56461 36.5964 7.71836C36.4423 7.87211 36.3498 8.02586 36.2573 8.24112H32.4959C32.2493 8.24112 32.0334 8.45637 32.0334 8.70237C32.0334 8.94837 32.2184 9.19437 32.4651 9.19437Z" fill="#FDC400"/>
<path d="M7.4304 9.19438C7.49207 9.37888 7.61539 9.56338 7.76955 9.71713C7.9237 9.87088 8.10869 9.96313 8.29368 10.0246V13.5917C8.29368 13.8377 8.50949 14.0529 8.75614 14.0529C9.00279 14.0529 9.21861 13.8377 9.21861 13.5917V9.99388C9.24944 9.99388 9.24944 9.96313 9.28027 9.96313L12.3942 13.8069C12.425 13.8069 12.425 13.7762 12.4559 13.7762C13.0417 13.3457 13.535 12.8537 13.9358 12.2387L13.9666 12.2079L10.2052 9.19438H10.236H13.8124C14.0591 9.19438 14.2749 8.97912 14.2749 8.73312C14.2749 8.48712 14.0591 8.27187 13.8124 8.27187H10.051C9.98939 8.08737 9.86606 7.90286 9.71191 7.74911C9.55775 7.59536 9.37276 7.50311 9.18778 7.44161V3.44407C9.18778 3.19807 8.97196 2.98282 8.72531 2.98282C8.47866 2.98282 8.26284 3.19807 8.26284 3.44407V7.41086C8.07786 7.47236 7.89287 7.56461 7.73872 7.71836C7.58456 7.87211 7.49207 8.02587 7.39957 8.24112H3.66901C3.42236 8.24112 3.20654 8.45637 3.20654 8.70237C3.20654 8.94837 3.42236 9.16363 3.66901 9.16363H7.4304V9.19438Z" fill="#FDC400"/>
<path d="M38.8471 36.6851C38.7854 36.5006 38.6621 36.3161 38.5079 36.1623C38.3538 36.0085 38.1688 35.9163 37.9838 35.8548V31.888C37.9838 31.642 37.768 31.4268 37.5213 31.4268C37.2747 31.4268 37.0589 31.642 37.0589 31.888V35.8548C37.028 35.8548 37.028 35.8855 36.9972 35.8855H36.9664L33.8524 32.0418C33.8524 32.0418 33.8524 32.0418 33.8216 32.0418C33.2358 32.4723 32.7425 32.9643 32.3417 33.5793C32.3109 33.61 32.3109 33.6408 32.2801 33.6715L35.9798 36.6543H32.4034C32.1567 36.6543 31.9409 36.8696 31.9409 37.1156C31.9409 37.3616 32.1567 37.5768 32.4034 37.5768H36.1648C36.2264 37.7613 36.3498 37.9458 36.5039 38.0996C36.6581 38.2533 36.8431 38.3456 37.028 38.4071V41.9741C37.028 42.2201 37.2439 42.4354 37.4905 42.4354C37.7372 42.4354 37.953 42.2201 37.953 41.9741V38.3763C38.138 38.3148 38.3229 38.2226 38.4771 38.0688C38.6313 37.9151 38.7238 37.7613 38.8162 37.5461H42.5776C42.8243 37.5461 43.0401 37.3308 43.0401 37.0848C43.0401 36.8388 42.8243 36.6236 42.5776 36.6236H38.8471V36.6851Z" fill="#FDC400"/>
<path d="M13.8433 36.6851H10.2669H10.236L13.9666 33.6716L13.9358 33.6409C13.535 33.0566 13.0417 32.5338 12.4559 32.1033C12.425 32.1033 12.425 32.0726 12.3942 32.0726L9.28027 35.9164C9.24944 35.9164 9.24944 35.8856 9.2186 35.8856V31.9188C9.2186 31.6728 9.00279 31.4576 8.75614 31.4576C8.50949 31.4576 8.29367 31.6728 8.29367 31.9188V35.8856C8.10869 35.9471 7.9237 36.0394 7.76954 36.1931C7.61539 36.3469 7.52289 36.5006 7.4304 36.7159H3.66901C3.42236 36.7159 3.20654 36.9311 3.20654 37.1771C3.20654 37.4231 3.42236 37.6384 3.66901 37.6384H7.4304C7.49206 37.8229 7.61539 38.0074 7.76954 38.1611C7.9237 38.3149 8.10869 38.4071 8.29367 38.4686V42.0357C8.29367 42.2817 8.50949 42.4969 8.75614 42.4969C9.00279 42.4969 9.2186 42.2817 9.2186 42.0357V38.4379C9.40359 38.3764 9.58858 38.2841 9.74273 38.1304C9.89689 37.9766 9.98938 37.8229 10.0819 37.6076H13.8433C14.0899 37.6076 14.3057 37.3924 14.3057 37.1464C14.3057 36.9004 14.0899 36.6851 13.8433 36.6851Z" fill="#FDC400"/>
<path d="M31.756 29.4584L29.5979 26.8142L28.9504 27.4599L27.6555 28.7512L27.0081 29.3969L29.6904 31.5798C30.2761 30.7497 30.9544 30.0425 31.756 29.4584Z" fill="#FDC400"/>
<path d="M16.6488 26.7836L14.5215 29.4277C15.3231 30.0119 16.0014 30.7191 16.5872 31.5492L19.2386 29.397L17.2963 27.46L16.6488 26.7836Z" fill="#FDC400"/>
<path d="M14.5215 16.4512L16.6488 19.0953L17.2963 18.4497L19.2386 16.5127L16.5872 14.3604C16.0322 15.1598 15.3231 15.867 14.5215 16.4512Z" fill="#FDC400"/>
<path d="M28.9504 18.4189L29.5979 19.0646L31.756 16.4205C31.5094 16.236 31.2936 16.0515 31.0778 15.867C30.8311 15.6518 30.5845 15.4058 30.3686 15.1599C30.1528 14.9139 29.937 14.6372 29.7212 14.3605C29.7212 14.3297 29.6904 14.3297 29.6904 14.299L27.0081 16.4819L27.6555 17.1276L28.9504 18.4189Z" fill="#FDC400"/>
<path d="M29.7211 20.5104L25.5589 16.3591C24.8806 15.6826 23.9865 15.3444 23.1233 15.3444C22.2292 15.3444 21.3659 15.6826 20.6876 16.3591L16.5562 20.5104C15.1997 21.8634 15.1997 24.0467 16.5562 25.3689L20.6876 29.5202C22.0442 30.8732 24.2332 30.8732 25.5589 29.5202L29.7211 25.3689C31.0777 24.0467 31.0777 21.8634 29.7211 20.5104Z" fill="#FDC400"/>
<path d="M30.4921 13.8376C30.6771 14.0836 30.8621 14.3296 31.0779 14.5449C31.2937 14.7601 31.5095 14.9754 31.7253 15.1906C31.9412 15.3751 32.157 15.5596 32.3728 15.7134C32.4036 15.7441 32.4036 15.7441 32.4345 15.7749C33.8835 16.8204 35.6409 17.4354 37.5524 17.4354C42.3621 17.4354 46.2776 13.5301 46.2776 8.73308C46.2776 3.93604 42.3621 0 37.5524 0C32.7428 0 28.7964 3.90529 28.7964 8.73308C28.7964 10.6088 29.3822 12.3309 30.3996 13.7761C30.4304 13.7761 30.4613 13.8069 30.4921 13.8376ZM37.5524 1.53751C41.5296 1.53751 44.7361 4.76629 44.7361 8.73308C44.7361 12.6999 41.4988 15.8979 37.5524 15.8979C35.98 15.8979 34.531 15.3751 33.3286 14.5141C32.6503 14.0221 32.0953 13.4379 31.6328 12.7614C30.8312 11.5929 30.3688 10.2091 30.3688 8.70233C30.3688 4.76629 33.5752 1.53751 37.5524 1.53751Z" fill="#FDC400"/>
<path d="M2.25067 14.5449C2.46649 14.7601 2.68231 14.9754 2.89812 15.1906C3.11394 15.4059 3.36059 15.5904 3.60724 15.7749C5.0563 16.8204 6.81367 17.4354 8.7252 17.4354C10.6676 17.4354 12.4866 16.7897 13.9357 15.7134C14.6756 15.1599 15.3231 14.4834 15.878 13.7454C16.8954 12.3309 17.4812 10.6088 17.4812 8.73308C17.4812 3.93604 13.5657 0 8.75603 0C3.94638 0 0 3.90529 0 8.73308C0 10.6396 0.616622 12.4231 1.66488 13.8376C1.84987 14.0836 2.06568 14.3296 2.25067 14.5449ZM8.75603 1.53751C12.7332 1.53751 15.9397 4.76629 15.9397 8.73308C15.9397 10.2398 15.4772 11.6236 14.6756 12.7921C14.2131 13.4686 13.6273 14.0529 12.9799 14.5449C11.7775 15.4059 10.3284 15.9286 8.7252 15.9286C4.74799 15.9286 1.51072 12.6999 1.51072 8.76383C1.54155 4.76629 4.77882 1.53751 8.75603 1.53751Z" fill="#FDC400"/>
<path d="M37.5524 28.444C35.61 28.444 33.8218 29.0897 32.3727 30.166C31.6328 30.7195 30.9853 31.396 30.4304 32.134C29.4129 33.5485 28.8271 35.3013 28.8271 37.1771C28.8271 39.0836 29.4438 40.8671 30.492 42.2816C30.677 42.5276 30.862 42.7736 31.0778 42.9889C31.2936 43.2041 31.5095 43.4194 31.7253 43.6346C31.9411 43.8499 32.1877 44.0344 32.4344 44.2189C33.8835 45.2644 35.6408 45.8794 37.5524 45.8794C42.362 45.8794 46.2776 41.9741 46.2776 37.1771C46.2776 32.38 42.362 28.444 37.5524 28.444ZM37.5524 44.3419C33.5751 44.3419 30.3379 41.1131 30.3379 37.1771C30.3379 35.6703 30.8003 34.2865 31.6019 33.118C32.0644 32.4415 32.6502 31.8573 33.2977 31.3652C34.5001 30.5042 35.9491 29.9815 37.5215 29.9815C41.4987 29.9815 44.7052 33.2103 44.7052 37.1771C44.7668 41.1131 41.5296 44.3419 37.5524 44.3419Z" fill="#FDC400"/>
<path d="M13.9665 30.166C12.5174 29.0897 10.6984 28.444 8.75604 28.444C3.94638 28.444 0 32.3493 0 37.1771C0 39.0836 0.616622 40.8671 1.66488 42.2816C1.84987 42.5276 2.03485 42.7736 2.25067 42.9889C2.46649 43.2041 2.68231 43.4194 2.89812 43.6346C3.11394 43.8499 3.36059 44.0344 3.60724 44.2189C5.0563 45.2644 6.81368 45.8794 8.72521 45.8794C13.5349 45.8794 17.4504 41.9741 17.4504 37.1771C17.4504 35.3013 16.8646 33.5793 15.8472 32.1648C15.3539 31.396 14.7064 30.7195 13.9665 30.166ZM8.75604 44.3419C4.77882 44.3419 1.54156 41.1131 1.54156 37.1771C1.54156 33.2103 4.77882 29.9815 8.75604 29.9815C10.3284 29.9815 11.8083 30.5042 13.0107 31.3652C13.6582 31.8573 14.244 32.4415 14.7064 33.118C15.508 34.2558 15.9705 35.6703 15.9705 37.1771C15.9397 41.1131 12.7332 44.3419 8.75604 44.3419Z" fill="#FDC400"/>
</svg>
